{
  "accessors": [
    {
      "bufferView": 2,
      "componentType": 5126,
      "count": 1056,
      "max": [
        5.693926811218262,
        -1.3973380327224731,
        2.67385196685791
      ],
      "min": [
        -5.675436973571777,
        -2.645451068878174,
        1.4258389472961426
      ],
      "type": "VEC3"
    },
    {
      "bufferView": 2,
      "byteOffset": 12672,
      "componentType": 5126,
      "count": 1056,
      "max": [
        0.9998840093612671,
        0.9999823570251465,
        0.9999607801437378
      ],
      "min": [
        -0.9999980926513672,
        -0.9999996423721313,
        -0.9999842643737793
      ],
      "type": "VEC3"
    },
    {
      "bufferView": 3,
      "componentType": 5126,
      "count": 1056,
      "max": [
        0.34942978620529175,
        0.1423540711402893,
        0.999984622001648,
        1.0
      ],
      "min": [
        -1.0,
        -0.9999980926513672,
        -0.17226114869117737,
        1.0
      ],
      "type": "VEC4"
    },
    {
      "bufferView": 1,
      "componentType": 5126,
      "count": 1056,
      "max": [
        0.9994459748268127,
        0.9957180023193359
      ],
      "min": [
        0.002007999923080206,
        0.0019920000340789557
      ],
      "type": "VEC2"
    },
    {
      "bufferView": 0,
      "componentType": 5125,
      "count": 5100,
      "type": "SCALAR"
    },
    {
      "bufferView": 2,
      "byteOffset": 25344,
      "componentType": 5126,
      "count": 140,
      "max": [
        5.574505805969238,
        -1.5333689451217651,
        1.5
      ],
      "min": [
        -5.574505805969238,
        -2.4666309356689453,
        0.5
      ],
      "type": "VEC3"
    },
    {
      "bufferView": 2,
      "byteOffset": 27024,
      "componentType": 5126,
      "count": 140,
      "max": [
        0.9998759031295776,
        0.999999463558197,
        1.0
      ],
      "min": [
        -0.9998759031295776,
        -0.999999463558197,
        -1.0
      ],
      "type": "VEC3"
    },
    {
      "bufferView": 1,
      "byteOffset": 8448,
      "componentType": 5126,
      "count": 140,
      "max": [
        0.875,
        1.0
      ],
      "min": [
        -0.0,
        0.0
      ],
      "type": "VEC2"
    },
    {
      "bufferView": 0,
      "byteOffset": 20400,
      "componentType": 5125,
      "count": 372,
      "type": "SCALAR"
    }
  ],
  "asset": {
    "extras": {
      "author": "Ingenuitee (https://sketchfab.com/Ingenuitee)",
      "license": "CC-BY-4.0 (http://creativecommons.org/licenses/by/4.0/)",
      "source": "https://sketchfab.com/3d-models/hedge-96bfd9a2cb854f239c5b58ead1fb431d",
      "title": "Hedge"
    },
    "generator": "Sketchfab-12.66.0",
    "version": "2.0"
  },
  "bufferViews": [
    {
      "buffer": 0,
      "byteLength": 21888,
      "name": "floatBufferViews",
      "target": 34963
    },
    {
      "buffer": 0,
      "byteLength": 9568,
      "byteOffset": 21888,
      "byteStride": 8,
      "name": "floatBufferViews",
      "target": 34962
    },
    {
      "buffer": 0,
      "byteLength": 28704,
      "byteOffset": 31456,
      "byteStride": 12,
      "name": "floatBufferViews",
      "target": 34962
    },
    {
      "buffer": 0,
      "byteLength": 16896,
      "byteOffset": 60160,
      "byteStride": 16,
      "name": "floatBufferViews",
      "target": 34962
    }
  ],
  "buffers": [
    {
      "byteLength": 77056,
      "uri": "scene.bin"
    }
  ],
  "images": [
    {
      "uri": "textures/aiStandardSurface1SG_baseColor.png"
    },
    {
      "uri": "textures/aiStandardSurface1SG_normal.png"
    }
  ],
  "materials": [
    {
      "doubleSided": true,
      "name": "aiStandardSurface1SG",
      "normalTexture": {
        "index": 1,
        "scale": 0.850189393939394
      },
      "pbrMetallicRoughness": {
        "baseColorTexture": {
          "index": 0
        },
        "metallicFactor": 0.1
      }
    },
    {
      "doubleSided": true,
      "name": "initialShadingGroup",
      "pbrMetallicRoughness": {
        "baseColorFactor": [
          0.9298707599354995,
          1.0,
          0.4530459196144188,
          1.0
        ],
        "metallicFactor": 0.0,
        "roughnessFactor": 0.6225378787878788
      }
    }
  ],
  "meshes": [
    {
      "name": "Object_0",
      "primitives": [
        {
          "attributes": {
            "NORMAL": 1,
            "POSITION": 0,
            "TANGENT": 2,
            "TEXCOORD_0": 3
          },
          "indices": 4,
          "material": 0,
          "mode": 4
        }
      ]
    },
    {
      "name": "Object_1",
      "primitives": [
        {
          "attributes": {
            "NORMAL": 6,
            "POSITION": 5,
            "TEXCOORD_0": 7
          },
          "indices": 8,
          "material": 1,
          "mode": 4
        }
      ]
    }
  ],
  "nodes": [
    {
      "children": [
        1
      ],
      "matrix": [
        1.0,
        0.0,
        0.0,
        0.0,
        0.0,
        2.220446049250313e-16,
        -1.0,
        0.0,
        0.0,
        1.0,
        2.220446049250313e-16,
        0.0,
        0.0,
        0.0,
        0.0,
        1.0
      ],
      "name": "Sketchfab_model"
    },
    {
      "children": [
        2,
        3
      ],
      "name": "8f532e9532f24b8c95fdc8c1b43a4048.obj.cleaner.materialmerger.gles"
    },
    {
      "mesh": 0,
      "name": "Object_2"
    },
    {
      "mesh": 1,
      "name": "Object_3"
    }
  ],
  "samplers": [
    {
      "magFilter": 9729,
      "minFilter": 9987,
      "wrapS": 10497,
      "wrapT": 10497
    }
  ],
  "scene": 0,
  "scenes": [
    {
      "name": "Sketchfab_Scene",
      "nodes": [
        0
      ]
    }
  ],
  "textures": [
    {
      "sampler": 0,
      "source": 0
    },
    {
      "sampler": 0,
      "source": 1
    }
  ]
}
